<svg width="950" height="546" viewBox="0 0 950 546" fill="none" xmlns="http://www.w3.org/2000/svg">
<path d="M0 529.505C33.4012 539.926 68.1875 545.227 103.176 545.227H475.001H846.824C881.812 545.227 916.6 539.926 950 529.505H475.001H0Z" fill="url(#paint0_linear_20_61)"/>
<path d="M0 523.859V529.506H382.938C386.711 529.506 390.456 530.043 394.129 530.918C394.561 531.023 394.996 531.116 395.436 531.197V523.86L0 523.859Z" fill="url(#paint1_linear_20_61)"/>
<path d="M949.952 523.859V529.506H567.015C563.242 529.506 559.497 530.043 555.824 530.919C555.392 531.024 554.957 531.116 554.517 531.197V523.861L949.952 523.859Z" fill="url(#paint2_linear_20_61)"/>
<path d="M554.516 523.859V531.196C552.885 531.499 551.226 531.656 549.559 531.656H400.393C398.726 531.656 397.067 531.498 395.436 531.196V523.859H554.516Z" fill="url(#paint3_linear_20_61)"/>
<path d="M0 523.04V528.687H382.938C386.711 528.687 390.456 529.223 394.129 530.099C394.561 530.205 394.996 530.297 395.436 530.378V523.042L0 523.04Z" fill="url(#paint4_linear_20_61)"/>
<path d="M839.793 3.3844H110.309C97.2367 3.3844 86.6376 13.9835 86.6376 27.0557V521.775H90.022V23.6677C90.022 22.623 90.1027 21.5947 90.256 20.5898C90.304 20.2552 90.3648 19.9241 90.4338 19.5942C90.5028 19.2678 90.5742 18.9403 90.6596 18.6174C90.7438 18.2945 90.8327 17.9728 90.9334 17.6581C91.7722 14.9638 93.1596 12.5118 94.9624 10.4306C95.1718 10.1849 95.3906 9.94624 95.6152 9.71226C95.724 9.59527 95.8375 9.4818 95.9545 9.36481C96.9875 8.33649 98.1281 7.41229 99.3588 6.62263C99.7706 6.36057 100.189 6.11022 100.621 5.87624C101.048 5.64227 101.488 5.42465 101.936 5.22226C101.936 5.22226 101.936 5.21876 101.94 5.21876C102.238 5.08539 102.541 4.96021 102.843 4.83971C102.843 4.83971 102.843 4.83504 102.847 4.83504C105.143 3.93189 107.647 3.4312 110.261 3.4312H839.745C843.23 3.4312 846.517 4.31913 849.385 5.87507C849.812 6.10904 850.235 6.3594 850.647 6.62145C851.192 6.97241 851.72 7.35146 852.232 7.74688C852.236 7.75039 852.236 7.75037 852.236 7.75037C852.49 7.95159 852.74 8.15751 852.982 8.36809C852.986 8.36809 852.986 8.36808 852.986 8.37159C853.353 8.68979 853.707 9.02086 854.05 9.36363C854.167 9.48062 854.281 9.5941 854.389 9.71108C854.615 9.94506 854.833 10.1826 855.043 10.4294C858.121 13.9788 859.984 18.6092 859.984 23.6666V521.773H863.412V25.5676C862.645 13.1891 852.364 3.3844 839.793 3.3844Z" fill="url(#paint5_linear_20_61)"/>
<path d="M86.5884 23.6713C86.5884 10.5991 97.1887 0 110.26 0H839.745C852.817 0 863.413 10.5991 863.413 23.6713V25.5665C862.646 13.188 852.365 3.38328 839.793 3.38328H110.309C97.2367 3.38328 86.6376 13.9824 86.6376 27.0546L86.5884 23.6713Z" fill="url(#paint6_linear_20_61)"/>
<path d="M859.984 505.153H90.0209V521.775H859.984V505.153Z" fill="black"/>
<path d="M859.983 23.6689V505.154H90.0209V23.6689C90.0209 12.5083 99.1003 3.43005 110.26 3.43005H839.744C850.904 3.43005 859.983 12.5095 859.983 23.6689Z" fill="black"/>
<path d="M949.952 523.04V528.687H567.015C563.242 528.687 559.497 529.223 555.824 530.099C555.392 530.205 554.957 530.297 554.517 530.378V523.042L949.952 523.04Z" fill="url(#paint7_linear_20_61)"/>
<path d="M554.516 523.04V530.377C552.885 530.68 551.226 530.836 549.559 530.836H400.393C398.726 530.836 397.067 530.68 395.436 530.377V523.04H554.516Z" fill="url(#paint8_linear_20_61)"/>
<path d="M863.412 521.775V523.041H859.984V523.037H90.0209V523.041H86.6376V521.775H863.412Z" fill="#131313"/>
<defs>
<linearGradient id="paint0_linear_20_61" x1="475.001" y1="545.227" x2="475.001" y2="529.505" gradientUnits="userSpaceOnUse">
<stop stop-color="#575554"/>
<stop offset="0.464" stop-color="#575554"/>
<stop offset="1" stop-color="#131313"/>
</linearGradient>
<linearGradient id="paint1_linear_20_61" x1="395.437" y1="527.528" x2="0.000707095" y2="527.528" gradientUnits="userSpaceOnUse">
<stop stop-color="#767676"/>
<stop offset="0.000828953" stop-color="#6E6E6E"/>
<stop offset="0.0039" stop-color="#585858"/>
<stop offset="0.0068" stop-color="#4A4A4A"/>
<stop offset="0.0093" stop-color="#454545"/>
<stop offset="0.0129" stop-color="#484848"/>
<stop offset="0.0159" stop-color="#525252"/>
<stop offset="0.0178" stop-color="#5D5D5D"/>
<stop offset="0.0253" stop-color="#7C7C7C"/>
<stop offset="0.4016" stop-color="#838383"/>
<stop offset="0.4064" stop-color="#838383"/>
<stop offset="0.9354" stop-color="#6A6A6A"/>
<stop offset="0.9589" stop-color="#484848"/>
<stop offset="0.9731" stop-color="#383838"/>
<stop offset="0.9791" stop-color="#3D3D3D"/>
<stop offset="0.9862" stop-color="#4B4B4B"/>
<stop offset="0.9939" stop-color="#636363"/>
<stop offset="1" stop-color="#7C7C7C"/>
</linearGradient>
<linearGradient id="paint2_linear_20_61" x1="554.516" y1="527.528" x2="949.952" y2="527.528" gradientUnits="userSpaceOnUse">
<stop stop-color="#505050"/>
<stop offset="0.000828953" stop-color="#484848"/>
<stop offset="0.0039" stop-color="#323232"/>
<stop offset="0.0068" stop-color="#242424"/>
<stop offset="0.0093" stop-color="#1F1F1F"/>
<stop offset="0.0129" stop-color="#222222"/>
<stop offset="0.0159" stop-color="#2C2C2C"/>
<stop offset="0.0178" stop-color="#373737"/>
<stop offset="0.0253" stop-color="#565656"/>
<stop offset="0.4016" stop-color="#5E5E5E"/>
<stop offset="0.4064" stop-color="#5E5E5E"/>
<stop offset="0.9354" stop-color="#444444"/>
<stop offset="0.9589" stop-color="#222222"/>
<stop offset="0.9731" stop-color="#121212"/>
<stop offset="0.9791" stop-color="#171717"/>
<stop offset="0.9862" stop-color="#252525"/>
<stop offset="0.9939" stop-color="#3D3D3D"/>
<stop offset="1" stop-color="#565656"/>
</linearGradient>
<linearGradient id="paint3_linear_20_61" x1="395.437" y1="527.758" x2="554.516" y2="527.758" gradientUnits="userSpaceOnUse">
<stop stop-color="#565656"/>
<stop offset="0.0612" stop-color="#444444"/>
<stop offset="0.5076" stop-color="#565656"/>
<stop offset="0.9402" stop-color="#444444"/>
<stop offset="1" stop-color="#565656"/>
</linearGradient>
<linearGradient id="paint4_linear_20_61" x1="395.437" y1="526.708" x2="0.000707095" y2="526.708" gradientUnits="userSpaceOnUse">
<stop stop-color="#A7A7A7"/>
<stop offset="0.0014" stop-color="#8E8E8E"/>
<stop offset="0.0035" stop-color="#6F6F6F"/>
<stop offset="0.0056" stop-color="#585858"/>
<stop offset="0.0076" stop-color="#4A4A4A"/>
<stop offset="0.0093" stop-color="#454545"/>
<stop offset="0.012" stop-color="#484848"/>
<stop offset="0.0142" stop-color="#525252"/>
<stop offset="0.0163" stop-color="#636363"/>
<stop offset="0.0178" stop-color="#757575"/>
<stop offset="0.0253" stop-color="#6B6968"/>
<stop offset="0.4016" stop-color="#6B6968"/>
<stop offset="0.4064" stop-color="#6B6968"/>
<stop offset="0.9354" stop-color="#8D8D8D"/>
<stop offset="0.9494" stop-color="#636363"/>
<stop offset="0.965" stop-color="#3B3B3B"/>
<stop offset="0.9731" stop-color="#2B2B2B"/>
<stop offset="0.9793" stop-color="#303030"/>
<stop offset="0.9867" stop-color="#3E3E3E"/>
<stop offset="0.9946" stop-color="#565554"/>
<stop offset="1" stop-color="#6B6968"/>
</linearGradient>
<linearGradient id="paint5_linear_20_61" x1="475.025" y1="521.774" x2="475.025" y2="3.38394" gradientUnits="userSpaceOnUse">
<stop stop-color="#504E4E"/>
<stop offset="0.0946" stop-color="#585656"/>
<stop offset="0.2407" stop-color="#6E6B6B"/>
<stop offset="0.4192" stop-color="#918E8E"/>
<stop offset="0.447" stop-color="#979494"/>
<stop offset="1" stop-color="#7B7878"/>
</linearGradient>
<linearGradient id="paint6_linear_20_61" x1="475.001" y1="27.0548" x2="475.001" y2="-0.000935336" gradientUnits="userSpaceOnUse">
<stop stop-color="#1A1A1A"/>
<stop offset="0.2805" stop-color="#1D1D1D"/>
<stop offset="0.4483" stop-color="#252525"/>
<stop offset="0.5865" stop-color="#333333"/>
<stop offset="0.7086" stop-color="#474747"/>
<stop offset="0.8201" stop-color="#626262"/>
<stop offset="0.9223" stop-color="#818181"/>
<stop offset="1" stop-color="#9F9F9F"/>
</linearGradient>
<linearGradient id="paint7_linear_20_61" x1="554.516" y1="526.708" x2="949.952" y2="526.708" gradientUnits="userSpaceOnUse">
<stop stop-color="#818181"/>
<stop offset="0.0013" stop-color="#696969"/>
<stop offset="0.0035" stop-color="#4A4A4A"/>
<stop offset="0.0056" stop-color="#333333"/>
<stop offset="0.0075" stop-color="#252525"/>
<stop offset="0.0093" stop-color="#202020"/>
<stop offset="0.012" stop-color="#232323"/>
<stop offset="0.0143" stop-color="#2D2D2D"/>
<stop offset="0.0163" stop-color="#3E3E3E"/>
<stop offset="0.0178" stop-color="#4F4F4F"/>
<stop offset="0.0253" stop-color="#6B6968"/>
<stop offset="0.4016" stop-color="#6B6968"/>
<stop offset="0.4064" stop-color="#6B6968"/>
<stop offset="0.9354" stop-color="#686868"/>
<stop offset="0.9464" stop-color="#4B4B4B"/>
<stop offset="0.964" stop-color="#232323"/>
<stop offset="0.9731" stop-color="#131313"/>
<stop offset="0.9783" stop-color="#181818"/>
<stop offset="0.9844" stop-color="#262626"/>
<stop offset="0.991" stop-color="#3E3D3D"/>
<stop offset="0.9979" stop-color="#605E5D"/>
<stop offset="1" stop-color="#6B6968"/>
</linearGradient>
<linearGradient id="paint8_linear_20_61" x1="395.437" y1="526.938" x2="554.516" y2="526.938" gradientUnits="userSpaceOnUse">
<stop stop-color="#838180"/>
<stop offset="0.0612" stop-color="#6B6968"/>
<stop offset="0.5076" stop-color="#838180"/>
<stop offset="0.9402" stop-color="#6B6968"/>
<stop offset="1" stop-color="#838180"/>
</linearGradient>
</defs>
</svg>
