<svg width="45" height="60" viewBox="0 0 45 60" fill="none" xmlns="http://www.w3.org/2000/svg">
<path fill-rule="evenodd" clip-rule="evenodd" d="M39.2271 5.77291C35.5363 2.08208 30.5321 0.00595508 25.3125 0H19.6875C14.4679 0.00595508 9.46374 2.08208 5.77291 5.77291C2.08208 9.46375 0.00595379 14.4679 0 19.6875V36.5625C0 42.5299 2.37053 48.2528 6.5901 52.4724C10.8097 56.692 16.5326 59.0625 22.5 59.0625C28.4674 59.0625 34.1903 56.692 38.4099 52.4724C42.6295 48.2528 45 42.5299 45 36.5625V19.6875C44.994 14.4679 42.9179 9.46375 39.2271 5.77291ZM5.625 36.5625C5.625 41.038 7.4029 45.3303 10.5676 48.4949C13.7322 51.6596 18.0245 53.4375 22.5 53.4375C26.9755 53.4375 31.2677 51.6596 34.4324 48.4949C37.5971 45.3303 39.375 41.038 39.375 36.5625V19.6875C39.3705 15.9593 37.8875 12.385 35.2513 9.74874C32.615 7.11248 29.0407 5.62947 25.3125 5.625H19.6875C15.9593 5.62947 12.385 7.11248 9.74874 9.74874C7.11248 12.385 5.62947 15.9593 5.625 19.6875V36.5625Z" fill="#3E3E3E"/>
<path d="M22.25 11.0625C23.2446 11.0625 24.1984 11.4971 24.9016 12.2707C25.6049 13.0443 26 14.0935 26 15.1875V23.4375C26 24.5315 25.6049 25.5807 24.9016 26.3543C24.1984 27.1279 23.2446 27.5625 22.25 27.5625C21.2554 27.5625 20.3016 27.1279 19.5984 26.3543C18.8951 25.5807 18.5 24.5315 18.5 23.4375V15.1875C18.5 14.0935 18.8951 13.0443 19.5984 12.2707C20.3016 11.4971 21.2554 11.0625 22.25 11.0625Z" fill="#3E3E3E"/>
</svg>
