<svg width="230" height="230" viewBox="0 0 230 230" fill="none" xmlns="http://www.w3.org/2000/svg">
<path d="M0 44.9219C0 20.1122 20.1122 0 44.9219 0H185.078C209.888 0 230 20.1122 230 44.9219V185.078C230 209.888 209.888 230 185.078 230H44.9219C20.1122 230 0 209.888 0 185.078V44.9219Z" fill="#262626"/>
<path d="M110.339 41.655C110.718 40.9036 111.486 40.4297 112.326 40.4297H155.292C157.049 40.4297 158.113 42.3746 157.168 43.8588L128.975 88.1275C128.029 89.6117 129.093 91.5565 130.85 91.5565H157.692C159.584 91.5565 160.613 93.7719 159.395 95.2221L74.0222 196.845C72.3793 198.801 69.2786 196.899 70.2694 194.543L98.9492 126.355C99.5674 124.886 98.4905 123.26 96.8988 123.26H72.8662C71.2086 123.26 70.1329 121.509 70.8796 120.026L110.339 41.655Z" fill="#F2F2F2"/>
</svg>
