<svg width="32" height="32" viewBox="0 0 32 32" fill="none" xmlns="http://www.w3.org/2000/svg">
<path d="M31.3307 8.248C30.9627 6.86267 29.8787 5.77067 28.5013 5.4C26.0067 4.728 16 4.728 16 4.728C16 4.728 5.99333 4.728 3.49733 5.4C2.12133 5.77067 1.03733 6.86133 0.669333 8.248C0 10.76 0 16 0 16C0 16 0 21.24 0.669333 23.752C1.03733 25.1373 2.12133 26.2293 3.49867 26.6C5.99333 27.272 16 27.272 16 27.272C16 27.272 26.0067 27.272 28.5027 26.6C29.8787 26.2293 30.9627 25.1387 31.332 23.752C32 21.24 32 16 32 16C32 16 32 10.76 31.3307 8.248ZM12.728 20.7587V11.2413L21.0907 16L12.728 20.7587Z" fill="#E50000"/>
</svg>
